<?xml version="1.0" encoding="UTF-8" standalone="no"?>
<svg
   inkscape:version="1.2.2 (b0a84865, 2022-12-01)"
   sodipodi:docname="ITMSample-Dark.svg"
   id="svg848"
   version="1.1"
   overflow="hidden"
   viewBox="0 0 160 160"
   xmlns:inkscape="http://www.inkscape.org/namespaces/inkscape"
   xmlns:sodipodi="http://sodipodi.sourceforge.net/DTD/sodipodi-0.dtd"
   xmlns="http://www.w3.org/2000/svg"
   xmlns:svg="http://www.w3.org/2000/svg"
   xmlns:rdf="http://www.w3.org/1999/02/22-rdf-syntax-ns#"
   xmlns:cc="http://creativecommons.org/ns#"
   xmlns:dc="http://purl.org/dc/elements/1.1/">
  <metadata
     id="metadata852">
    <rdf:RDF>
      <cc:Work
         rdf:about="">
        <dc:format>image/svg+xml</dc:format>
        <dc:type
           rdf:resource="http://purl.org/dc/dcmitype/StillImage" />
      </cc:Work>
    </rdf:RDF>
  </metadata>
  <sodipodi:namedview
     inkscape:current-layer="svg848"
     inkscape:window-maximized="0"
     inkscape:window-y="25"
     inkscape:window-x="2240"
     inkscape:cy="70.923652"
     inkscape:cx="34.423652"
     inkscape:zoom="4.5753425"
     showgrid="false"
     id="namedview850"
     inkscape:window-height="1205"
     inkscape:window-width="1666"
     inkscape:pageshadow="2"
     inkscape:pageopacity="0"
     guidetolerance="10"
     gridtolerance="10"
     objecttolerance="10"
     borderopacity="1"
     bordercolor="#666666"
     pagecolor="#ffffff"
     inkscape:document-rotation="0"
     inkscape:showpageshadow="2"
     inkscape:pagecheckerboard="true"
     inkscape:deskcolor="#d1d1d1" />
  <defs
     id="defs836">
    <clipPath
       clipPathUnits="userSpaceOnUse"
       id="clipPath2322">
      <g
         id="g2326">
        <path
           id="path2324"
           clip-rule="evenodd"
           fill-rule="evenodd"
           d="m 43.83988,51.69457 h 109.5 v 101.25 h -109.5 z"
           style="stroke-width:0.75" />
      </g>
    </clipPath>
    <clipPath
       clipPathUnits="userSpaceOnUse"
       id="clipPath2328">
      <g
         id="g2332">
        <path
           id="path2330"
           clip-rule="evenodd"
           fill-rule="evenodd"
           d="m 43.83988,51.69457 h 109.5 v 101.25 h -109.5 z"
           style="stroke-width:0.75" />
      </g>
    </clipPath>
    <clipPath
       clipPathUnits="userSpaceOnUse"
       id="clipPath2334">
      <g
         id="g2338">
        <path
           id="path2336"
           clip-rule="evenodd"
           fill-rule="evenodd"
           d="m 43.83988,51.69457 h 109.5 v 101.25 h -109.5 z"
           style="stroke-width:0.75" />
      </g>
    </clipPath>
    <clipPath
       clipPathUnits="userSpaceOnUse"
       id="clipPath2340">
      <g
         id="g2344">
        <path
           id="path2342"
           clip-rule="evenodd"
           fill-rule="evenodd"
           d="m 43.83988,51.69457 h 109.5 v 101.25 h -109.5 z"
           style="stroke-width:0.75" />
      </g>
    </clipPath>
  </defs>
  <path
     id="path838"
     fill-rule="evenodd"
     fill="#ffffff"
     d="m 119.17213,53.94757 c 1.401,0.0495 2.8155,0.72225 5.16,1.87125 l 20.283,12.096 c 5.208,3.3165 4.7505,4.54575 4.97475,8.169 l -0.13125,27.102 c -0.105,3.4935 -0.95175,4.9095 -4.05225,6.5805 -7.04325,4.1385 -16.095,10.22025 -21.279,12.264 -5.184,2.0445 -5.44425,2.38725 -9.825,0 l -21.1275,-12.41475 c -2.57175,-1.821 -4.09875,-2.78625 -4.20375,-6.42975 l -0.13125,-27.102 c 0.1485,-3.699 0.069,-5.379 4.97475,-8.169 l 20.283,-12.096 c 2.28825,-1.34625 3.67425,-1.92075 5.0745,-1.87125 z"
     style="fill:#ffffff;fill-opacity:0;stroke-width:0.75"
     clip-path="url(#clipPath2340)" />
  <path
     id="path840"
     fill-rule="evenodd"
     fill="#05a9ce"
     d="m 120.07646,121.85718 c 1.30955,0.0464 2.60579,-0.49406 4.74533,-1.76056 l 18.96637,-11.3815 c 4.58706,-2.62535 4.51308,-4.20598 4.65188,-7.68617 l -0.12299,-25.500537 c -0.0981,-3.42802 -1.52599,-4.336594 -3.9306,-6.050219 L 124.58569,57.351079 c -4.31951,-2.334989 -4.97176,-2.265493 -9.18715,0.04448 -4.21535,2.309913 -13.26749,8.047496 -19.852901,11.941132 -2.899437,1.572177 -3.691171,2.904909 -3.789222,6.191501 l -0.123001,25.500648 c 0.209434,3.40947 -0.217916,4.56605 4.651868,7.68614 l 18.966406,11.38146 c 2.19249,1.08103 3.51529,1.71433 4.82477,1.76074 z m 2.73652,4.33524 c -1.63385,0.75838 -3.71389,0.5353 -5.43695,-0.0895 -0.89685,-0.24038 -1.81656,-0.64141 -2.77146,-1.11252 L 92.844186,111.93233 c -4.127468,-2.44439 -5.177971,-6.04201 -5.337142,-8.81842 l 0.141111,-29.257182 c 0.112483,-3.121976 2.480583,-5.786416 4.509595,-6.941408 l 23.60346,-13.491046 c 3.27378,-1.592701 4.91911,-2.045188 8.17579,-0.356696 3.04333,1.577915 8.50738,4.764668 12.76099,7.147048 l 10.02875,5.896706 1.30452,0.804204 c 2.02898,1.15502 4.39707,3.819367 4.50959,6.941443 l 0.14118,29.257121 c -0.15922,2.77639 -1.20976,6.37406 -5.33724,8.81844 l -21.76035,13.0581 c -0.95487,0.47114 -1.83001,0.82757 -2.77146,1.20178 z"
     style="stroke-width:0.75"
     clip-path="url(#clipPath2334)" />
  <path
     id="path842"
     fill-rule="evenodd"
     fill="#05a9ce"
     d="m 129.92109,107.93008 c -0.067,1.3301 -0.33584,2.10748 -2.2076,1.16622 l -9.45829,-5.49763 -1.53696,-0.88503 c -1.71284,-0.85913 -1.86426,-1.50141 -1.86426,-2.29376 l -6e-5,-23.94942 -9.83617,5.717318 c -1.63911,0.978463 -2.76731,0.542261 -2.73209,-1.718504 -0.0621,-3.43746 -0.12409,-2.51799 -0.12474,-5.894 0.13863,-2.272181 0.91906,-2.134434 2.70027,-3.468572 l 11.7661,-7.037272 c 1.9033,-1.128294 2.6584,-1.128359 4.47247,-4.2e-5 l 11.76612,7.037375 c 1.78127,1.334112 2.56161,1.196323 2.70026,3.468528 -6e-4,3.376047 -0.0626,2.456529 -0.12468,5.893988 0.0264,1.695556 -0.60164,2.364868 -1.60877,2.180752 -0.33568,-0.06142 -0.71361,-0.217605 -1.12333,-0.462267 l -9.23024,-5.365021 0.0947,17.666941 c -0.0887,1.45387 0.19069,1.435003 1.02241,1.968417 1.46835,0.815013 1.68076,0.934874 3.94874,2.232127 0.92216,0.47501 1.33433,0.398647 1.41167,2.425382 -6.9e-4,3.37604 0.0265,3.37704 -0.0356,6.81447 z"
     style="stroke-width:0.75"
     clip-path="url(#clipPath2328)" />
  <path
     id="path844"
     fill-rule="evenodd"
     fill="#05a9ce"
     d="m 68.29438,104.34082 c -0.2535,0.1905 -0.3165,0.6075 -0.345,1.182 -0.054,2.97 -0.10725,2.97075 -0.108,5.88675 0.06675,1.75125 0.423,1.68525 1.2195,2.0955 l 3.41175,1.92825 c 0.7185,0.46125 0.95925,0.44475 0.88275,1.701 l 0.08175,15.2625 -7.974,-4.635 c -0.354,-0.2115 -0.68025,-0.3465 -0.9705,-0.399 -0.87,-0.15975 -1.41225,0.4185 -1.38975,1.88325 -0.05325,2.97 -0.10725,2.17575 -0.10725,5.09175 0.11925,1.9635 0.7935,1.84425 2.3325,2.997 l 10.16475,6.0795 c 0.4905,0.26175 0.861,0.43875 1.167,0.5415 l 0.747,0.093 0.0083,0.004 0.0097,-0.001 0.009,0.001 c 0.003,-0.001 0.006,-0.002 0.009,-0.004 l 0.747,-0.0923 c 0.30525,-0.1035 0.67575,-0.2805 1.167,-0.54225 l 10.16475,-6.0795 c 1.539,-1.15275 2.2125,-1.0335 2.3325,-2.99625 -7.5e-4,-2.91675 -0.054,-2.1225 -0.10725,-5.0925 0.03,-1.953 -0.94425,-2.3295 -2.361,-1.48425 l -8.4975,4.93875 v -20.6895 c 0,-0.68475 -0.1305,-1.23975 -1.61025,-1.9815 l -1.3275,-0.765 -8.17125,-4.749 c -0.789,-0.33 -1.23225,-0.36525 -1.485,-0.17475 z m 8.87625,-11.661 c -2.562,0 -4.63875,2.07675 -4.63875,4.63875 0,2.562 2.07675,4.63875 4.63875,4.63875 2.562,0 4.63875,-2.07675 4.63875,-4.63875 0,-2.562 -2.07675,-4.63875 -4.63875,-4.63875 z m -5.5995,-14.07225 c 5.1,-2.4885 5.83575,-2.75625 10.98,0 l 21.7605,13.05825 c 4.12725,2.44425 5.178,6.042 5.337,8.8185 l -0.141,29.2575 c -0.1125,3.1215 -2.48025,5.78625 -4.50975,6.94125 l -1.314,0.777 0.01,0.027 -1.53525,0.87525 -8.49375,5.022 c -3.768,2.2695 -8.9205,5.31075 -11.33325,6.7005 -2.41275,1.38975 -1.72725,0.92325 -3.14175,1.63725 -1.1955,0.57975 -2.5695,0.75825 -3.40875,0.312 -1.54875,-0.759 -1.43625,-0.50775 -3.99,-1.94925 -2.55375,-1.44225 -7.56525,-4.43175 -11.33325,-6.70125 l -8.472,-5.00925 -1.55625,-0.88725 0.0097,-0.027 -1.31475,-0.777 c -2.02875,-1.155 -4.39725,-3.81975 -4.50975,-6.942 l -0.141,-29.25675 c 0.159,-2.7765 1.20975,-6.37425 5.33775,-8.8185 z"
     style="stroke-width:0.75"
     clip-path="url(#clipPath2322)" />
  <path
     style="stroke-width:3.99881;fill:#ffffff"
     d="m 58.994659,13.205748 h -27.98932 a 3.7776379,3.7782687 0 0 0 -3.99847,3.99914 v 55.98798 a 3.7776379,3.7782687 0 0 0 3.99847,3.99914 h 27.98932 a 3.7776379,3.7782687 0 0 0 3.99847,-3.99914 v -55.98798 a 3.7776379,3.7782687 0 0 0 -3.99847,-3.99914 z m -19.99237,3.99914 h 11.99542 v 3.99914 h -11.99542 z m 5.99771,55.98798 a 1.9992368,1.9995706 0 1 1 1.99924,-1.99957 1.8888389,1.8891543 0 0 1 -1.99924,1.99957 z m 13.99466,-7.99828 h -27.98932 v -39.99141 h 27.98932 z"
     id="path888" />
</svg>
