<?xml version="1.0" encoding="UTF-8" standalone="no"?>
<svg
   inkscape:version="1.2.2 (b0a84865, 2022-12-01)"
   sodipodi:docname="ITMSample-Camera.svg"
   id="svg848"
   version="1.1"
   overflow="hidden"
   viewBox="0 0 160 160"
   xmlns:inkscape="http://www.inkscape.org/namespaces/inkscape"
   xmlns:sodipodi="http://sodipodi.sourceforge.net/DTD/sodipodi-0.dtd"
   xmlns="http://www.w3.org/2000/svg"
   xmlns:svg="http://www.w3.org/2000/svg"
   xmlns:rdf="http://www.w3.org/1999/02/22-rdf-syntax-ns#"
   xmlns:cc="http://creativecommons.org/ns#"
   xmlns:dc="http://purl.org/dc/elements/1.1/">
  <metadata
     id="metadata852">
    <rdf:RDF>
      <cc:Work
         rdf:about="">
        <dc:format>image/svg+xml</dc:format>
        <dc:type
           rdf:resource="http://purl.org/dc/dcmitype/StillImage" />
      </cc:Work>
    </rdf:RDF>
  </metadata>
  <sodipodi:namedview
     inkscape:current-layer="svg848"
     inkscape:window-maximized="0"
     inkscape:window-y="127"
     inkscape:window-x="2305"
     inkscape:cy="67.645209"
     inkscape:cx="39.669161"
     inkscape:zoom="4.5753425"
     showgrid="false"
     id="namedview850"
     inkscape:window-height="1205"
     inkscape:window-width="1390"
     inkscape:pageshadow="2"
     inkscape:pageopacity="0"
     guidetolerance="10"
     gridtolerance="10"
     objecttolerance="10"
     borderopacity="1"
     bordercolor="#666666"
     pagecolor="#ffffff"
     inkscape:document-rotation="0"
     inkscape:showpageshadow="2"
     inkscape:pagecheckerboard="0"
     inkscape:deskcolor="#d1d1d1" />
  <defs
     id="defs836">
    <clipPath
       id="clip0">
      <path
         id="path833"
         clip-rule="evenodd"
         fill-rule="evenodd"
         d="M 202,164 H 348 V 299 H 202 Z" />
    </clipPath>
  </defs>
  <g
     id="g846"
     transform="matrix(0.75,0,0,0.75,-107.66012,-71.30543)"
     clip-path="url(#clip0)">
    <path
       id="path838"
       fill-rule="evenodd"
       fill="#ffffff"
       d="m 302.443,167.004 c 1.868,0.066 3.754,0.963 6.88,2.495 l 27.044,16.128 c 6.944,4.422 6.334,6.061 6.633,10.892 l -0.175,36.136 c -0.14,4.658 -1.269,6.546 -5.403,8.774 -9.391,5.518 -21.46,13.627 -28.372,16.352 -6.912,2.726 -7.259,3.183 -13.1,0 l -28.17,-16.553 c -3.429,-2.428 -5.465,-3.715 -5.605,-8.573 L 262,196.519 c 0.198,-4.932 0.092,-7.172 6.633,-10.892 l 27.044,-16.128 c 3.051,-1.795 4.899,-2.561 6.766,-2.495 z" />
    <path
       id="path840"
       transform="matrix(0.866579,0.499039,0.499039,-0.866579,238.936,228.663)"
       fill-rule="evenodd"
       fill="#05a9ce"
       d="m 70.4946,7.26121 c 1.544,0.81772 2.6821,2.30471 4.3115,5.19169 l 14.3414,25.7706 c 3.5532,6.0856 2.416,7.8627 0.2607,11.9762 L 72.2984,79.5822 c -2.3943,3.8956 -4.6487,3.9953 -8.5673,4.3753 l -30.9478,0.837 C 26.2387,84.6183 25.5313,84.104 22.1977,78.6301 18.8641,73.1563 12.2226,60.5037 7.20433,51.623 4.90031,47.8772 4.87229,45.8105 6.94585,41.9478 L 23.7715,12.4015 C 26.2821,8.60142 26.5579,6.9807 34.2607,6.61592 L 63.7483,6.0853 c 3.2526,0.2098 5.2024,0.35822 6.7463,1.17591 z M 76.5411,4.07295 C 75.1579,2.10954 72.6061,0.983262 70.1995,0.558641 69.0033,0.239634 67.6738,0.091039 66.257,0 L 32.4255,0.608806 C 26.03,0.686785 22.4224,4.14463 20.3911,7.2467 L 1.08683,41.1455 c -1.947351,3.6821 -0.984036,8.3364 0.59185,11.021 L 19.9743,83.46 c 2.7229,4.0186 4.3229,5.6362 9.2093,5.8522 4.5663,0.2018 13.0001,0.1554 19.5001,0.233 l 15.5112,-0.1403 2.0424,-0.0612 c 3.1129,0.0155 7.6219,-1.4873 9.8293,-5.0198 L 95.697,50.613 c 1.6634,-3.3139 2.8434,-8.1698 -0.2992,-13.7405 L 78.9437,7.30562 C 78.1539,6.12588 77.3799,5.13175 76.5411,4.07295 Z" />
    <path
       id="path842"
       transform="matrix(0.862689,-0.505735,-0.505735,-0.862689,305.375,247.252)"
       fill-rule="evenodd"
       fill="#05a9ce"
       d="M 14.0177,1.37023 C 13.0437,-0.114521 12.2103,-0.827449 10.692,1.51739 L 3.51972,14.2189 2.34861,16.2733 C 0.957738,18.4165 1.21667,19.2574 1.75096,20.1688 L 17.9003,47.7167 2.73097,47.773 c -2.545188,-0.0202 -3.548762,1.2423 -1.983787,3.819 2.246527,3.9958 1.555177,2.98 3.830917,6.8637 1.69162,2.5201 2.49643,1.8354 5.4449,2.1689 l 18.2793,0.1606 c 2.9501,0.0144 3.8187,-0.4947 5.1445,-3.0158 l 8.7886,-16.0288 c 1.1493,-2.7357 2.1398,-3.1034 0.7671,-5.8105 -2.2772,-3.8829 -1.7285,-2.7834 -4.1178,-6.6955 -1.113,-1.9681 -2.2867,-2.3145 -3.321,-1.4236 -0.3447,0.297 -0.6741,0.7315 -0.9804,1.2892 L 27.5839,41.4954 15.7798,21.1101 c -1.0824,-1.6125 -0.7483,-1.7792 -0.1513,-2.9536 1.1394,-1.9276 1.3029,-2.2087 3.0369,-5.2302 0.7404,-1.1682 1.266,-1.3583 -0.0117,-3.7417 C 16.3764,5.30176 16.407,5.28228 14.0177,1.37023 Z" />
    <path
       id="path844"
       fill-rule="evenodd"
       fill="#05a9ce"
       d="m 234.606,234.195 c -0.338,0.254 -0.422,0.81 -0.46,1.576 -0.072,3.96 -0.143,3.961 -0.144,7.849 0.089,2.335 0.564,2.247 1.626,2.794 l 4.549,2.571 c 0.958,0.615 1.279,0.593 1.177,2.268 l 0.109,20.35 -10.632,-6.18 c -0.472,-0.282 -0.907,-0.462 -1.294,-0.532 -1.16,-0.213 -1.883,0.558 -1.853,2.511 -0.071,3.96 -0.143,2.901 -0.143,6.789 0.159,2.618 1.058,2.459 3.11,3.996 l 13.553,8.106 c 0.654,0.349 1.148,0.585 1.556,0.722 l 0.996,0.124 0.011,0.005 0.013,-0.002 0.012,0.002 c 0.004,-0.002 0.008,-0.003 0.012,-0.005 l 0.996,-0.123 c 0.407,-0.138 0.901,-0.374 1.556,-0.723 l 13.553,-8.106 c 2.052,-1.537 2.95,-1.378 3.11,-3.995 -0.001,-3.889 -0.072,-2.83 -0.143,-6.79 0.04,-2.604 -1.259,-3.106 -3.148,-1.979 l -11.33,6.585 v -27.586 c 0,-0.913 -0.174,-1.653 -2.147,-2.642 l -1.77,-1.02 -10.895,-6.332 c -1.052,-0.44 -1.643,-0.487 -1.98,-0.233 z m 11.835,-15.548 c -3.416,0 -6.185,2.769 -6.185,6.185 0,3.416 2.769,6.185 6.185,6.185 3.416,0 6.185,-2.769 6.185,-6.185 0,-3.416 -2.769,-6.185 -6.185,-6.185 z m -7.466,-18.763 c 6.8,-3.318 7.781,-3.675 14.64,0 l 29.014,17.411 c 5.503,3.259 6.904,8.056 7.116,11.758 l -0.188,39.01 c -0.15,4.162 -3.307,7.715 -6.013,9.255 l -1.752,1.036 0.013,0.036 -2.047,1.167 -11.325,6.696 c -5.024,3.026 -11.894,7.081 -15.111,8.934 -3.217,1.853 -2.303,1.231 -4.189,2.183 -1.594,0.773 -3.426,1.011 -4.545,0.416 -2.065,-1.012 -1.915,-0.677 -5.32,-2.599 -3.405,-1.923 -10.087,-5.909 -15.111,-8.935 l -11.296,-6.679 -2.075,-1.183 0.013,-0.036 -1.753,-1.036 c -2.705,-1.54 -5.863,-5.093 -6.013,-9.256 l -0.188,-39.009 c 0.212,-3.702 1.613,-8.499 7.117,-11.758 z" />
  </g>
  <g
     transform="matrix(4,0,0,4,13.572,6.3870472)"
     id="g861">
    <path
       d="M 1.5,3 H 3 A 0.5,0.5 0 0 0 3,2 H 1.5 a 0.5,0.5 0 0 0 0,1 z"
       id="path844-7" />
    <path
       d="M 15,4 H 11.55 L 11,2.62 A 1.29,1.29 0 0 0 9.85,2 H 6 A 1.28,1.28 0 0 0 4.81,2.62 L 4.27,4 H 1 A 1,1 0 0 0 0,5 v 8 a 1,1 0 0 0 1,1 h 14 a 1,1 0 0 0 1,-1 V 5 A 1,1 0 0 0 15,4 Z M 8,13 A 4,4 0 1 1 12,9 4,4 0 0 1 8,13 Z M 12.5,6 A 0.5,0.5 0 1 1 13,5.5 0.5,0.5 0 0 1 12.5,6 Z"
       id="path846" />
    <path
       d="M 8,6 A 3,3 0 1 0 11,9 3,3 0 0 0 8,6"
       id="path848" />
  </g>
</svg>
